<svg version="1.1" id="Capa_1" xmlns="http://www.w3.org/2000/svg" xmlns:xlink="http://www.w3.org/1999/xlink" x="0px" y="0px" viewBox="181 238 480 119" style="enable-background:new 0 0 841.89 595.28;" xml:space="preserve"><style type="text/css">
	.color-black-blue{fill:#08364B;}
	.color-blue-dark{fill:#046C99;}
	.color-blue-light{fill:#97B8C8;}
	.color-blue{fill:#3399C7;}
	.color-white{fill:#FFFFFF;}
	.color-grey-dark{fill:#575756;}
	.color-grey-light{fill:#C6C6C6;}
</style><g><g><polygon id="Logo-BorderLeft" class="color-blue-light" points="232.15,239.19 181.54,268.41 181.54,326.86 232.15,356.08"></polygon><polygon id="Logo-BorderRight" class="color-blue" points="232.15,356.08 282.77,326.86 282.77,268.41 232.15,239.19"></polygon><polygon id="Logo-Background" class="color-blue" points="232.15,244.01 185.71,270.82 185.71,324.45 232.15,351.27 278.6,324.45 278.6,270.82"></polygon><path id="Logo-Imago" class="color-white" d="M256.4,300.6c-2.29-1.55-5.05-2.5-8-2.61c0-0.12,0.01-0.23,0.01-0.35c0-0.12-0.01-0.24-0.01-0.35
			c1.9-0.07,3.72-0.48,5.39-1.19c2.75-1.16,5.09-3.11,6.74-5.55c1.65-2.44,2.62-5.41,2.62-8.57c0-2.11-0.43-4.13-1.21-5.97
			c-1.17-2.75-3.11-5.09-5.55-6.74c-2.44-1.65-5.41-2.62-8.57-2.62c-2.11,0-4.13,0.43-5.97,1.21c-2.75,1.17-5.09,3.11-6.74,5.55
			c-1.52,2.25-2.46,4.93-2.6,7.81c-0.18-0.01-0.37-0.01-0.55-0.01c-0.06,0-0.11,0-0.17,0c-0.09-1.83-0.5-3.59-1.19-5.2
			c-1.17-2.75-3.11-5.09-5.55-6.74c-2.44-1.65-5.41-2.62-8.57-2.62c-2.11,0-4.13,0.43-5.97,1.21c-2.75,1.17-5.09,3.11-6.74,5.55
			c-1.65,2.44-2.62,5.41-2.62,8.57c0,2.11,0.43,4.13,1.21,5.97c1.17,2.75,3.11,5.09,5.55,6.74c2.2,1.48,4.81,2.41,7.62,2.59
			c0,0.12-0.01,0.25-0.01,0.37c0,0.12,0.01,0.25,0.01,0.37c-1.77,0.11-3.46,0.51-5.01,1.17c-2.75,1.17-5.09,3.11-6.74,5.55
			c-1.65,2.44-2.62,5.41-2.62,8.57c0,2.11,0.43,4.13,1.21,5.97c1.17,2.75,3.11,5.09,5.55,6.74c2.44,1.65,5.41,2.62,8.57,2.62
			c2.11,0,4.13-0.43,5.97-1.21c2.75-1.17,5.09-3.11,6.74-5.55c1.52-2.24,2.46-4.93,2.6-7.8c0.06,0,0.11,0,0.17,0
			c0.18,0,0.37-0.01,0.55-0.01c0.09,1.84,0.5,3.59,1.19,5.21c1.17,2.75,3.11,5.09,5.55,6.74c2.44,1.65,5.41,2.62,8.57,2.62
			c2.11,0,4.13-0.43,5.97-1.21c2.75-1.17,5.09-3.11,6.74-5.55c1.65-2.44,2.62-5.41,2.62-8.57c0-2.11-0.43-4.13-1.21-5.97
			C260.78,304.58,258.84,302.25,256.4,300.6z M237.56,281.97c0-1.42,0.29-2.77,0.81-4c0.78-1.84,2.08-3.41,3.72-4.52
			c1.64-1.11,3.6-1.75,5.74-1.75c1.42,0,2.77,0.29,4,0.81c1.84,0.78,3.41,2.08,4.52,3.72c1.11,1.64,1.75,3.6,1.75,5.74
			c0,1.42-0.29,2.77-0.81,4c-0.78,1.84-2.08,3.41-3.72,4.52c-1.64,1.11-3.6,1.75-5.74,1.75c-0.11,0-0.22-0.01-0.33-0.01
			c-0.12-0.33-0.24-0.66-0.38-0.99c-1.25-2.95-3.33-5.46-5.95-7.23c-1.11-0.75-2.31-1.36-3.6-1.83
			C237.56,282.11,237.56,282.04,237.56,281.97z M212.49,291.43c-1.84-0.78-3.41-2.08-4.52-3.72c-1.11-1.64-1.75-3.6-1.75-5.74
			c0-1.42,0.29-2.77,0.81-4c0.78-1.84,2.08-3.41,3.72-4.52c1.64-1.11,3.6-1.75,5.74-1.75c1.42,0,2.77,0.29,3.99,0.81
			c1.84,0.78,3.41,2.08,4.52,3.72c1.11,1.64,1.75,3.6,1.75,5.74c0,0.03,0,0.05,0,0.08c-0.4,0.13-0.8,0.28-1.19,0.44
			c-2.95,1.25-5.46,3.33-7.23,5.95c-0.79,1.16-1.43,2.44-1.9,3.79C215.03,292.23,213.7,291.94,212.49,291.43z M226.75,313.31
			c0,1.42-0.29,2.77-0.81,4c-0.78,1.84-2.08,3.41-3.72,4.52c-1.64,1.11-3.6,1.75-5.74,1.75c-1.42,0-2.77-0.29-4-0.81
			c-1.84-0.78-3.41-2.08-4.52-3.72c-1.11-1.64-1.75-3.6-1.75-5.74c0-1.42,0.29-2.77,0.81-4c0.78-1.84,2.08-3.41,3.72-4.52
			c1.63-1.1,3.57-1.74,5.69-1.75c0.12,0.34,0.24,0.67,0.38,1c1.25,2.95,3.33,5.46,5.95,7.23c1.22,0.82,2.56,1.49,3.98,1.96
			C226.75,313.26,226.75,313.28,226.75,313.31z M227.53,308.12c-2.04-0.86-3.78-2.31-5.01-4.13c-1.23-1.82-1.94-4-1.94-6.36
			c0-1.58,0.32-3.07,0.89-4.43c0.86-2.04,2.31-3.78,4.13-5.01c1.82-1.23,3.99-1.94,6.36-1.94c1.58,0,3.07,0.32,4.43,0.89
			c2.04,0.86,3.78,2.31,5.01,4.13c1.23,1.82,1.94,4,1.94,6.36c0,1.58-0.32,3.07-0.89,4.43c-0.86,2.04-2.31,3.78-4.13,5.01
			c-1.82,1.23-4,1.94-6.36,1.94C230.38,309.02,228.89,308.7,227.53,308.12z M257.28,317.3c-0.78,1.84-2.08,3.41-3.72,4.52
			c-1.64,1.11-3.6,1.75-5.74,1.75c-1.42,0-2.77-0.29-4-0.81c-1.84-0.78-3.41-2.08-4.52-3.72c-1.11-1.64-1.75-3.6-1.75-5.74
			c0-0.07,0-0.14,0-0.2c0.27-0.1,0.54-0.2,0.8-0.31c2.95-1.25,5.46-3.33,7.23-5.95c0.79-1.16,1.43-2.43,1.9-3.78
			c0.11,0,0.22-0.01,0.33-0.01c1.42,0,2.77,0.29,4,0.81c1.84,0.78,3.41,2.08,4.52,3.72c1.11,1.64,1.75,3.6,1.75,5.74
			C258.09,314.73,257.8,316.08,257.28,317.3z"></path></g><g><rect id="Techs-T1" class="color-black-blue" x="316.92" y="267.76" width="35.01" height="8.66"></rect><rect id="Techs-T2" class="color-black-blue" x="330.09" y="279.47" width="8.66" height="47.43"></rect><path id="Techs-e" class="color-black-blue" d="M349.51,308.53c0-11.88,9.06-19.09,18.86-19.09c10.84,0,16.86,7.2,16.86,17.3c0,1.71-0.22,3.34-0.37,4.31h-26.81
			c0.41,5.72,4.93,8.77,11.69,8.77c3.86,0,7.55-1.01,10.82-2.87l3.19,6.43c-3.86,2.53-8.91,4.31-14.26,4.31
			C358.34,327.7,349.51,320.64,349.51,308.53z M358.27,304.97h19.38c-0.59-5.94-3.86-8.91-9.06-8.91
			C363.54,296.06,359.38,299.1,358.27,304.97z"></path><path id="Techs-c" class="color-black-blue" d="M419.92,316.98c-2.15,2.15-5.11,3.48-8.38,3.48c-6.54,0-11.86-5.32-11.86-11.86c0-6.54,5.32-11.86,11.86-11.86
			c3.27,0,6.23,1.33,8.38,3.48l5.12-5.12c-3.46-3.46-8.23-5.59-13.5-5.59c-10.55,0-19.1,8.55-19.1,19.1c0,10.55,8.55,19.1,19.1,19.1
			c5.27,0,10.05-2.14,13.5-5.59L419.92,316.98z"></path><rect id="Techs-h1" class="color-black-blue" x="432.11" y="268.53" width="8.34" height="58.37"></rect><path id="Techs-h2" class="color-black-blue" d="M465.47,298.39c-0.69-2.81-2.04-4.99-4.05-6.55c-2.01-1.56-4.9-2.34-8.66-2.34c-2.97,0-5.56,0.73-7.78,2.18
			c-0.17,0.11-0.32,0.24-0.48,0.36v7.34c0.51-0.46,1.05-0.88,1.63-1.23c1.61-0.95,3.22-1.43,4.8-1.43c1.96,0,3.45,0.45,4.49,1.35
			c1.03,0.9,1.72,2.22,2.06,3.97c0.34,1.75,0.52,4.16,0.52,7.23v17.63h8.5v-17.55C466.5,304.85,466.15,301.2,465.47,298.39z"></path><path id="Techs-s" class="color-black-blue" d="M480.15,326.7c-2.73-0.66-4.67-1.44-5.84-2.34l2.86-6.75c3.18,2.22,6.8,3.34,10.88,3.34c4.08,0,6.11-1.19,6.11-3.57
			c0-1.06-0.42-1.88-1.27-2.46c-0.85-0.58-2.36-1.27-4.53-2.06l-3.02-1.11c-3.18-1.27-5.69-2.79-7.54-4.57
			c-1.85-1.77-2.78-4.12-2.78-7.03c0-3.34,1.31-5.94,3.93-7.82c2.62-1.88,6.13-2.82,10.52-2.82c2.17,0,4.3,0.24,6.39,0.71
			c2.09,0.48,3.69,1.09,4.8,1.83l-3.1,6.83c-0.69-0.69-1.79-1.28-3.3-1.79c-1.51-0.5-3.19-0.75-5.04-0.75
			c-3.76,0-5.64,1.14-5.64,3.42c0,1.27,0.5,2.24,1.51,2.9c1.01,0.66,2.65,1.39,4.92,2.18c0.21,0.05,1.03,0.35,2.46,0.87
			c3.39,1.32,5.9,2.83,7.54,4.53c1.64,1.69,2.46,3.86,2.46,6.51c0,3.6-1.36,6.33-4.09,8.18c-2.73,1.85-6.18,2.78-10.36,2.78
			C485.51,327.7,482.88,327.36,480.15,326.7z"></path></g><g><path id="BCN-B" class="color-blue-dark" d="M513.92,268.53h14.85c8.36,0,13.92,1.4,16.68,4.21c2.75,2.81,4.13,6.19,4.13,10.16c0,2.65-0.58,5.15-1.75,7.5
			c-1.17,2.36-3.02,4.12-5.56,5.28c3.76,0.95,6.52,2.62,8.3,5c1.77,2.38,2.66,5.19,2.66,8.42c0,3.39-0.53,6.35-1.59,8.89
			c-1.06,2.54-3.26,4.66-6.59,6.35c-3.34,1.7-8.15,2.54-14.45,2.54h-16.68V268.53z M530.2,293.31c3.76,0,6.43-0.91,8.02-2.74
			c1.59-1.83,2.38-4.14,2.38-6.95c0-5.03-3.6-7.55-10.8-7.55h-7.15v17.23H530.2z M531.79,319.44c4.82,0,8.06-0.96,9.73-2.9
			c1.67-1.93,2.5-4.38,2.5-7.35c0-2.81-0.95-4.98-2.86-6.51c-1.91-1.53-4.79-2.3-8.66-2.3h-9.85v19.06H531.79z"></path><path id="BCN-C" class="color-blue-dark" d="M602.94,312.46c-3.82,3.82-9.09,6.18-14.9,6.18c-11.63,0-21.09-9.46-21.09-21.09
			c0-11.63,9.46-21.09,21.09-21.09c5.81,0,11.09,2.37,14.9,6.18l6.29-6.29c-5.42-5.43-12.92-8.78-21.2-8.78
			c-16.56,0-29.98,13.42-29.98,29.98c0,16.56,13.42,29.98,29.98,29.98c8.28,0,15.77-3.35,21.2-8.78L602.94,312.46z"></path><polygon id="BCN-N1" class="color-blue-dark" points="616.36,286.42 616.36,326.9 625.25,326.9 625.25,296.14"></polygon><polygon id="BCN-N2" class="color-blue-dark" points="617.47,268.45 616.36,268.45 616.36,280.44 659.16,326.9 660.35,326.9 660.35,315.31"></polygon><polygon id="BCN-N3" class="color-blue-dark" points="660.35,309.34 660.35,268.53 651.46,268.53 651.46,299.68"></polygon></g></g></svg>